<?xml version="1.0" encoding="UTF-8"?>
<svg id="Router_Medium_x5F_White" xmlns="http://www.w3.org/2000/svg" version="1.1" viewBox="0 0 792 266.25">
  <!-- Generator: Adobe Illustrator 30.2.1, SVG Export Plug-In . SVG Version: 2.1.1 Build 1)  -->
  <defs>
    <style>
      .st0 {
        fill: #053fd2;
      }

      .st1 {
        fill: #008edd;
      }

      .st2 {
        fill: #00bbdf;
      }

      .st3 {
        fill: #00cf00;
      }

      .st4 {
        fill: #ffae00;
      }

      .st5 {
        fill: #fdfe00;
      }

      .st6 {
        fill: #ff8314;
      }

      .st7 {
        fill: #ff2ca9;
      }

      .st8 {
        fill: #4251b0;
        font-family: STXinwei, STXinwei;
        font-size: 130.56px;
      }

      .st9 {
        fill: #63e000;
      }

      .st10 {
        fill: #c12cd7;
      }

      .st11 {
        fill: #ff3148;
      }

      .st12 {
        fill: #ff2b2d;
      }
    </style>
  </defs>
  <g id="Layer_2">
    <g id="Layer_3">
      <path class="st7" d="M62.79,83.87c8.39,4.79,53.24,39.93,47.92,47.92-5.32,7.99-57.1-13.31-65.49-17.57-8.69-4.31-12.24-14.85-7.93-23.55,4.31-8.69,14.85-12.24,23.55-7.93.68.33,1.33.71,1.95,1.13Z"/>
      <path class="st9" d="M212.13,170.13c-8.39-4.93-60.56-25.96-65.49-17.57-4.93,8.39,39.93,43.13,47.92,47.92,8.07,5.39,18.98,3.22,24.37-4.85,5.39-8.07,3.22-18.98-4.85-24.37-.63-.42-1.28-.8-1.96-1.13Z"/>
      <path class="st6" d="M186.98,76.29c-4.79,8.39-39.93,53.24-47.92,47.92-7.99-5.32,13.31-57.1,17.57-65.49,5.39-8.07,16.3-10.24,24.37-4.85,7.34,4.91,9.9,14.5,5.98,22.42Z"/>
      <path class="st1" d="M100.72,225.63c4.93-8.39,25.96-60.56,17.57-65.49-8.39-4.93-42.86,39.53-47.92,48.58-5.95,7.67-4.55,18.71,3.12,24.65,7.67,5.95,18.71,4.55,24.65-3.12,1.09-1.4,1.96-2.96,2.58-4.63Z"/>
      <path class="st4" d="M212.13,114.22c-8.39,4.93-60.56,25.96-65.49,17.57s39.93-43.13,47.92-47.92c8.07-5.39,18.98-3.22,24.37,4.85,5.39,8.07,3.22,18.98-4.85,24.37-.63.42-1.28.8-1.95,1.13Z"/>
      <path class="st0" d="M62.79,200.48c8.39-4.79,53.24-39.93,47.92-47.92-5.32-7.99-57.1,13.31-65.49,17.57-8.69,4.31-12.24,14.85-7.93,23.55,4.31,8.69,14.85,12.24,23.55,7.93.68-.33,1.33-.71,1.95-1.13Z"/>
      <path class="st3" d="M156.63,225.63c-4.93-8.39-25.96-60.56-17.57-65.49,8.39-4.93,43.13,39.93,47.92,47.92,4.31,8.69.76,19.24-7.93,23.55-7.91,3.92-17.51,1.37-22.42-5.98Z"/>
      <path class="st11" d="M70.37,76.29c4.79,8.39,39.93,53.24,47.92,47.92s-13.31-57.1-17.57-65.49c-4.31-8.69-14.85-12.24-23.55-7.93-8.69,4.31-12.24,14.85-7.93,23.55.33.68.71,1.33,1.13,1.95Z"/>
      <path class="st10" d="M42.42,124.6c9.72,0,65.49,7.85,65.49,17.57s-55.77,17.57-65.49,17.57-17.57-7.87-17.57-17.57,7.87-17.57,17.57-17.57Z"/>
      <path class="st5" d="M214.93,124.6c-9.72,0-65.49,7.85-65.49,17.57s55.77,17.57,65.49,17.57,17.57-7.87,17.57-17.57-7.87-17.57-17.57-17.57Z"/>
      <path class="st12" d="M146.25,55.92c0,9.72-7.85,65.49-17.57,65.49s-17.57-55.77-17.57-65.49,7.87-17.57,17.57-17.57,17.57,7.87,17.57,17.57Z"/>
      <path class="st2" d="M146.25,228.43c0-9.72-7.85-65.49-17.57-65.49s-17.57,55.77-17.57,65.49,7.87,17.57,17.57,17.57,17.57-7.87,17.57-17.57Z"/>
    </g>
  </g>
  <text class="st8" transform="translate(250.07 185.19)"><tspan x="0" y="0">Oimmich</tspan></text>
</svg>