<?xml version="1.0" encoding="UTF-8"?>
<svg id="Router_Medium_x5F_Black" xmlns="http://www.w3.org/2000/svg" version="1.1" viewBox="0 0 792 792">
  <!-- Generator: Adobe Illustrator 30.2.1, SVG Export Plug-In . SVG Version: 2.1.1 Build 1)  -->
  <defs>
    <style>
      .st0 {
        fill: #053fd2;
      }

      .st1 {
        fill: #008edd;
      }

      .st2 {
        fill: #00bbdf;
      }

      .st3 {
        fill: #00cf00;
      }

      .st4 {
        fill: #ffae00;
      }

      .st5 {
        fill: #fdfe00;
      }

      .st6, .st7 {
        fill: #accbfa;
      }

      .st8 {
        fill: #ff8314;
      }

      .st9 {
        fill: #ff2ca9;
      }

      .st10 {
        display: none;
      }

      .st11 {
        fill: #63e000;
      }

      .st7 {
        font-family: STXinwei, STXinwei;
        font-size: 174.24px;
      }

      .st12 {
        fill: #c12cd7;
      }

      .st13 {
        fill: #ff3148;
      }

      .st14 {
        fill: #ff2b2d;
      }
    </style>
  </defs>
  <g class="st10">
    <path class="st6" d="M110.16,537.4c7.85,0,14.25,6.4,14.25,14.04s-6.4,14.04-14.25,14.04-14.45-6.19-14.45-14.04c0-7.64,6.61-14.04,14.45-14.04ZM97.98,610.7c0-3.72-.83-9.71-.83-13.22,0-7.43,5.78-13.22,13.01-13.22s13.01,5.78,13.01,13.22c0,3.51-1.03,9.5-1.03,13.22v47.9c0,3.72,1.03,9.71,1.03,13.22,0,7.43-5.78,13.22-13.01,13.22s-13.01-5.78-13.01-13.22c0-3.51.83-9.5.83-13.22v-47.9Z"/>
    <path class="st6" d="M265.44,671.82c0-3.51,1.03-9.5,1.03-13.22v-35.72c0-12.6-6.61-20.85-17.96-20.85-7.43,0-14.04,3.72-18.38,10.94.41,2.27.62,4.54.62,7.02v38.61c0,3.72,1.03,9.71,1.03,13.22,0,7.43-5.78,13.22-13.22,13.22-6.81,0-12.8-5.78-12.8-13.22,0-3.51,1.03-9.5,1.03-13.22v-36.34c0-3.92-.62-7.43-2.06-10.53-2.69-5.99-8.05-9.71-15.49-9.71s-13.83,3.92-18.38,10.94v45.63c0,3.72,1.03,9.71,1.03,13.22,0,7.43-5.99,13.22-13.01,13.22s-13.01-5.78-13.01-13.22c0-3.51.83-9.5.83-13.22v-47.7c0-3.72-1.86-10.32-1.86-13.42,0-7.43,5.37-13.22,12.6-13.22,6.81,0,10.74,4.54,11.98,10.53,6.19-8.26,14.87-13.42,26.22-13.42,13.42,0,23.13,6.4,29.11,16.73,6.81-10.74,16.73-16.73,29.11-16.73,20.86,0,36.75,15.07,36.75,39.23v37.99c0,3.72.83,9.71.83,13.22,0,7.43-5.57,13.22-13.01,13.22-7,.02-12.99-5.76-12.99-13.2Z"/>
    <path class="st6" d="M431.45,671.82c0-3.51,1.03-9.5,1.03-13.22v-35.72c0-12.6-6.61-20.85-17.96-20.85-7.43,0-14.04,3.72-18.38,10.94.41,2.27.62,4.54.62,7.02v38.61c0,3.72,1.03,9.71,1.03,13.22,0,7.43-5.78,13.22-13.22,13.22-6.82,0-12.8-5.78-12.8-13.22,0-3.51,1.03-9.5,1.03-13.22v-36.34c0-3.92-.62-7.43-2.06-10.53-2.68-5.99-8.05-9.71-15.49-9.71s-13.83,3.92-18.38,10.94v45.63c0,3.72,1.03,9.71,1.03,13.22,0,7.43-5.99,13.22-13.01,13.22s-13.01-5.78-13.01-13.22c0-3.51.83-9.5.83-13.22v-47.7c0-3.72-1.86-10.32-1.86-13.42,0-7.43,5.37-13.22,12.6-13.22,6.82,0,10.74,4.54,11.98,10.53,6.2-8.26,14.87-13.42,26.22-13.42,13.42,0,23.13,6.4,29.11,16.73,6.81-10.74,16.72-16.73,29.11-16.73,20.86,0,36.75,15.07,36.75,39.23v37.99c0,3.72.83,9.71.83,13.22,0,7.43-5.57,13.22-13.01,13.22-7,.02-12.99-5.76-12.99-13.2Z"/>
    <path class="st6" d="M491.33,537.4c7.85,0,14.25,6.4,14.25,14.04s-6.4,14.04-14.25,14.04-14.45-6.19-14.45-14.04c0-7.64,6.6-14.04,14.45-14.04ZM479.15,610.7c0-3.72-.83-9.71-.83-13.22,0-7.43,5.78-13.22,13.01-13.22s13.01,5.78,13.01,13.22c0,3.51-1.03,9.5-1.03,13.22v47.9c0,3.72,1.03,9.71,1.03,13.22,0,7.43-5.78,13.22-13.01,13.22s-13.01-5.78-13.01-13.22c0-3.51.83-9.5.83-13.22v-47.9Z"/>
    <path class="st6" d="M522.09,634.04c0-29.11,18.17-52.65,48.32-52.65,15.9,0,30.56,7.23,37.17,17.97,2.48,3.92,2.89,6.19,2.89,8.05,0,6.4-4.96,11.77-12.18,11.77-4.75,0-9.08-2.68-10.94-7.43-2.89-6.4-8.47-10.12-16.93-10.12-15.9,0-24.78,14.25-24.78,32.21s9.29,32.21,25.4,32.21c8.67,0,14.87-3.1,17.76-9.5,2.06-4.34,5.99-8.05,11.36-8.05,7.43,0,11.98,5.16,11.98,11.56,0,3.1-1.24,6.81-3.92,10.32-6.82,9.09-19.62,16.31-37.17,16.31-30.99,0-48.96-23.13-48.96-52.65Z"/>
    <path class="st6" d="M690.17,671.82c0-3.51.83-9.5.83-13.22v-35.3c0-12.6-7.02-21.27-19-21.27-8.26,0-15.28,3.92-19.82,10.32v46.25c0,3.72.83,9.71.83,13.22,0,7.43-5.78,13.22-13.01,13.22s-13.01-5.78-13.01-13.22c0-3.51,1.03-9.5,1.03-13.22v-99.94c0-3.72-1.03-9.71-1.03-13.22,0-7.43,5.99-13.22,13.01-13.22s13.01,5.78,13.01,13.22c0,3.51-.83,9.5-.83,13.22v33.66c6.2-6.81,15.07-10.94,26.43-10.94,21.27,0,36.55,15.9,36.55,38.61v38.61c0,3.72,1.03,9.71,1.03,13.22,0,7.43-5.99,13.22-13.01,13.22-7.23,0-13.01-5.78-13.01-13.22Z"/>
  </g>
  <text class="st7" transform="translate(49 679.91)"><tspan x="0" y="0">Oimmich</tspan></text>
  <g id="Layer_2">
    <g id="Layer_3">
      <path class="st9" d="M272.18,179.15c17.09,9.77,108.54,81.4,97.68,97.68-10.85,16.28-116.41-27.13-133.5-35.82-17.72-8.79-24.96-30.28-16.17-48,8.79-17.72,30.28-24.96,48-16.17,1.38.68,2.71,1.45,3.99,2.31Z"/>
      <path class="st11" d="M576.63,354.98c-17.09-10.04-123.46-52.91-133.5-35.82-10.04,17.09,81.4,87.92,97.68,97.68,16.45,10.99,38.69,6.57,49.68-9.88,10.99-16.45,6.57-38.69-9.88-49.68-1.28-.85-2.61-1.62-3.99-2.31Z"/>
      <path class="st8" d="M525.35,163.68c-9.77,17.09-81.4,108.54-97.68,97.68-16.28-10.85,27.13-116.41,35.82-133.5,10.99-16.45,33.23-20.87,49.68-9.88,14.97,10,20.19,29.57,12.19,45.7Z"/>
      <path class="st1" d="M349.52,468.13c10.04-17.09,52.91-123.46,35.82-133.5-17.09-10.04-87.37,80.59-97.68,99.04-12.12,15.63-9.27,38.13,6.36,50.25,15.63,12.12,38.13,9.27,50.25-6.36,2.22-2.86,3.99-6.04,5.25-9.43Z"/>
      <path class="st4" d="M576.63,241.02c-17.09,10.04-123.46,52.91-133.5,35.82-10.04-17.09,81.4-87.92,97.68-97.68,16.45-10.99,38.69-6.57,49.68,9.88,10.99,16.45,6.57,38.69-9.88,49.68-1.28.85-2.61,1.62-3.99,2.31Z"/>
      <path class="st0" d="M272.18,416.85c17.09-9.77,108.54-81.4,97.68-97.68-10.85-16.28-116.41,27.13-133.5,35.82-17.72,8.79-24.96,30.28-16.17,48,8.79,17.72,30.28,24.96,48,16.17,1.38-.68,2.71-1.45,3.99-2.31Z"/>
      <path class="st3" d="M463.48,468.13c-10.04-17.09-52.91-123.46-35.82-133.5,17.09-10.04,87.92,81.4,97.68,97.68,8.79,17.72,1.55,39.21-16.17,48-16.13,8-35.69,2.78-45.7-12.19Z"/>
      <path class="st13" d="M287.65,163.68c9.77,17.09,81.4,108.54,97.68,97.68,16.28-10.85-27.13-116.41-35.82-133.5-8.79-17.72-30.28-24.96-48-16.17-17.72,8.79-24.96,30.28-16.17,48,.68,1.38,1.45,2.71,2.31,3.99Z"/>
      <path class="st12" d="M230.67,262.18c19.81,0,133.5,16.01,133.5,35.82s-113.69,35.82-133.5,35.82-35.82-16.04-35.82-35.82,16.04-35.82,35.82-35.82Z"/>
      <path class="st5" d="M582.33,262.18c-19.81,0-133.5,16.01-133.5,35.82s113.69,35.82,133.5,35.82,35.82-16.04,35.82-35.82-16.04-35.82-35.82-35.82Z"/>
      <path class="st14" d="M442.32,122.17c0,19.81-16.01,133.5-35.82,133.5s-35.82-113.69-35.82-133.5,16.04-35.82,35.82-35.82,35.82,16.04,35.82,35.82Z"/>
      <path class="st2" d="M442.32,473.83c0-19.81-16.01-133.5-35.82-133.5s-35.82,113.69-35.82,133.5,16.04,35.82,35.82,35.82,35.82-16.04,35.82-35.82Z"/>
    </g>
  </g>
</svg>