<?xml version="1.0" encoding="UTF-8"?>
<svg id="_图层_1" data-name="图层_1" xmlns="http://www.w3.org/2000/svg" version="1.1" viewBox="0 0 24 24">
  <!-- Generator: Adobe Illustrator 30.2.1, SVG Export Plug-In . SVG Version: 2.1.1 Build 1)  -->
  <defs>
    <style>
      .st0 {
        fill: #053fd2;
      }

      .st1 {
        fill: #008edd;
      }

      .st2 {
        fill: #00bbdf;
      }

      .st3 {
        fill: #00cf00;
      }

      .st4 {
        fill: #ffae00;
      }

      .st5 {
        fill: #fdfe00;
      }

      .st6 {
        fill: #ff8314;
      }

      .st7 {
        fill: #ff2ca9;
      }

      .st8 {
        fill: #63e000;
      }

      .st9 {
        fill: #c12cd7;
      }

      .st10 {
        fill: #ff3148;
      }

      .st11 {
        fill: #ff2b2d;
      }
    </style>
  </defs>
  <g id="Layer_2">
    <g id="Layer_3">
      <path class="st7" d="M7.05,7.62c.63.36,4,3,3.6,3.6s-4.29-1-4.92-1.32c-.65-.32-.92-1.12-.6-1.77.32-.65,1.12-.92,1.77-.6.05.03.1.05.15.09Z"/>
      <path class="st8" d="M18.27,14.1c-.63-.37-4.55-1.95-4.92-1.32s3,3.24,3.6,3.6c.61.41,1.43.24,1.83-.36.41-.61.24-1.43-.36-1.83-.05-.03-.1-.06-.15-.09Z"/>
      <path class="st6" d="M16.38,7.05c-.36.63-3,4-3.6,3.6s1-4.29,1.32-4.92c.41-.61,1.22-.77,1.83-.36.55.37.74,1.09.45,1.68Z"/>
      <path class="st1" d="M9.9,18.27c.37-.63,1.95-4.55,1.32-4.92s-3.22,2.97-3.6,3.65c-.45.58-.34,1.41.23,1.85s1.41.34,1.85-.23c.08-.11.15-.22.19-.35Z"/>
      <path class="st4" d="M18.27,9.9c-.63.37-4.55,1.95-4.92,1.32s3-3.24,3.6-3.6c.61-.41,1.43-.24,1.83.36.41.61.24,1.43-.36,1.83-.05.03-.1.06-.15.09Z"/>
      <path class="st0" d="M7.05,16.38c.63-.36,4-3,3.6-3.6s-4.29,1-4.92,1.32c-.65.32-.92,1.12-.6,1.77.32.65,1.12.92,1.77.6.05-.03.1-.05.15-.09Z"/>
      <path class="st3" d="M14.1,18.27c-.37-.63-1.95-4.55-1.32-4.92s3.24,3,3.6,3.6c.32.65.06,1.45-.6,1.77-.59.29-1.32.1-1.68-.45Z"/>
      <path class="st10" d="M7.62,7.05c.36.63,3,4,3.6,3.6s-1-4.29-1.32-4.92c-.32-.65-1.12-.92-1.77-.6-.65.32-.92,1.12-.6,1.77.03.05.05.1.09.15Z"/>
      <path class="st9" d="M5.52,10.68c.73,0,4.92.59,4.92,1.32s-4.19,1.32-4.92,1.32-1.32-.59-1.32-1.32.59-1.32,1.32-1.32Z"/>
      <path class="st5" d="M18.48,10.68c-.73,0-4.92.59-4.92,1.32s4.19,1.32,4.92,1.32,1.32-.59,1.32-1.32-.59-1.32-1.32-1.32Z"/>
      <path class="st11" d="M13.32,5.52c0,.73-.59,4.92-1.32,4.92s-1.32-4.19-1.32-4.92.59-1.32,1.32-1.32,1.32.59,1.32,1.32Z"/>
      <path class="st2" d="M13.32,18.48c0-.73-.59-4.92-1.32-4.92s-1.32,4.19-1.32,4.92.59,1.32,1.32,1.32,1.32-.59,1.32-1.32Z"/>
    </g>
  </g>
</svg>