<?xml version="1.0" encoding="UTF-8"?>
<svg id="Router_Medium_x5F_White" xmlns="http://www.w3.org/2000/svg" version="1.1" viewBox="0 0 792 792">
  <!-- Generator: Adobe Illustrator 30.2.1, SVG Export Plug-In . SVG Version: 2.1.1 Build 1)  -->
  <defs>
    <style>
      .st0 {
        fill: #053fd2;
      }

      .st1 {
        fill: #008edd;
      }

      .st2 {
        fill: #00bbdf;
      }

      .st3 {
        fill: #00cf00;
      }

      .st4 {
        fill: #ffae00;
      }

      .st5 {
        fill: #fdfe00;
      }

      .st6 {
        fill: #4251b0;
        font-family: STXinwei, STXinwei;
        font-size: 174.24px;
      }

      .st7 {
        fill: #ff8314;
      }

      .st8 {
        fill: #ff2ca9;
      }

      .st9 {
        fill: #63e000;
      }

      .st10 {
        fill: #c12cd7;
      }

      .st11 {
        fill: #ff3148;
      }

      .st12 {
        fill: #ff2b2d;
      }
    </style>
  </defs>
  <g id="Layer_2">
    <g id="Layer_3">
      <path class="st8" d="M257.03,183c17.09,9.77,108.54,81.4,97.68,97.68-10.85,16.28-116.41-27.13-133.5-35.82-17.72-8.79-24.96-30.28-16.17-48,8.79-17.72,30.28-24.96,48-16.17,1.38.68,2.71,1.45,3.99,2.31Z"/>
      <path class="st9" d="M561.48,358.83c-17.09-10.04-123.46-52.91-133.5-35.82-10.04,17.09,81.4,87.92,97.68,97.68,16.45,10.99,38.69,6.57,49.68-9.88,10.99-16.45,6.57-38.69-9.88-49.68-1.28-.85-2.61-1.62-3.99-2.31Z"/>
      <path class="st7" d="M510.2,167.53c-9.77,17.09-81.4,108.54-97.68,97.68-16.28-10.85,27.13-116.41,35.82-133.5,10.99-16.45,33.23-20.87,49.68-9.88,14.97,10,20.19,29.57,12.19,45.7Z"/>
      <path class="st1" d="M334.37,471.98c10.04-17.09,52.91-123.46,35.82-133.5s-87.37,80.59-97.68,99.04c-12.12,15.63-9.27,38.13,6.36,50.25,15.63,12.12,38.13,9.27,50.25-6.36,2.22-2.86,3.99-6.04,5.25-9.43Z"/>
      <path class="st4" d="M561.48,244.87c-17.09,10.04-123.46,52.91-133.5,35.82-10.04-17.09,81.4-87.92,97.68-97.68,16.45-10.99,38.69-6.57,49.68,9.88,10.99,16.45,6.57,38.69-9.88,49.68-1.28.85-2.61,1.62-3.99,2.31Z"/>
      <path class="st0" d="M257.03,420.7c17.09-9.77,108.54-81.4,97.68-97.68s-116.41,27.13-133.5,35.82c-17.72,8.79-24.96,30.28-16.17,48,8.79,17.72,30.28,24.96,48,16.17,1.38-.68,2.71-1.45,3.99-2.31Z"/>
      <path class="st3" d="M448.33,471.98c-10.04-17.09-52.91-123.46-35.82-133.5s87.92,81.4,97.68,97.68c8.79,17.72,1.55,39.21-16.17,48-16.13,8-35.69,2.78-45.7-12.19Z"/>
      <path class="st11" d="M272.5,167.53c9.77,17.09,81.4,108.54,97.68,97.68,16.28-10.85-27.13-116.41-35.82-133.5-8.79-17.72-30.28-24.96-48-16.17-17.72,8.79-24.96,30.28-16.17,48,.68,1.38,1.45,2.71,2.31,3.99Z"/>
      <path class="st10" d="M215.52,266.03c19.81,0,133.5,16.01,133.5,35.82s-113.69,35.82-133.5,35.82-35.82-16.04-35.82-35.82,16.04-35.82,35.82-35.82Z"/>
      <path class="st5" d="M567.18,266.03c-19.81,0-133.5,16.01-133.5,35.82s113.69,35.82,133.5,35.82,35.82-16.04,35.82-35.82-16.04-35.82-35.82-35.82Z"/>
      <path class="st12" d="M427.17,126.02c0,19.81-16.01,133.5-35.82,133.5s-35.82-113.69-35.82-133.5,16.04-35.82,35.82-35.82,35.82,16.04,35.82,35.82Z"/>
      <path class="st2" d="M427.17,477.68c0-19.81-16.01-133.5-35.82-133.5s-35.82,113.69-35.82,133.5,16.04,35.82,35.82,35.82,35.82-16.04,35.82-35.82Z"/>
    </g>
  </g>
  <text class="st6" transform="translate(52.07 687.14)"><tspan x="0" y="0">Oimmich</tspan></text>
</svg>